<svg xmlns="http://www.w3.org/2000/svg" width="28" height="28" viewBox="-2 -2 28 28"><path transform="scale(0.0117,-0.0117) translate(2, -2050)" d="M960 896L1088 896L1088 768L960 768L960 896M1024 1664Q1077 1664 1123.50 1644Q1170 1624 1205 1589Q1240 1554 1260 1507.50Q1280 1461 1280 1408Q1280 1361 1266 1326.50Q1252 1292 1230.50 1264Q1209 1236 1184 1213.50Q1159 1191 1137.50 1169Q1116 1147 1102 1124Q1088 1101 1088 1072L1088 1024L960 1024L960 1072Q960 1118 974 1153Q988 1188 1009.50 1216Q1031 1244 1056 1266.50Q1081 1289 1102.50 1311Q1124 1333 1138 1356Q1152 1379 1152 1408Q1152 1435 1142 1458Q1132 1481 1114.50 1498.50Q1097 1516 1074 1526Q1051 1536 1024 1536Q997 1536 974 1526Q951 1516 933.50 1498.50Q916 1481 906 1458Q896 1435 896 1408L768 1408Q768 1461 788 1507.50Q808 1554 843 1589Q878 1624 924.50 1644Q971 1664 1024 1664M1408 809Q1527 753 1622 669Q1717 585 1783 480Q1849 375 1884.50 253Q1920 131 1920 0L1792 0Q1792 124 1756.50 238.50Q1721 353 1655 448Q1589 543 1494 615Q1399 687 1280 727L1280 967Q1339 1001 1386.50 1048.50Q1434 1096 1467 1153Q1500 1210 1518 1274.50Q1536 1339 1536 1408Q1536 1514 1495.50 1607Q1455 1700 1385.50 1769.50Q1316 1839 1223 1879.50Q1130 1920 1024 1920Q918 1920 825 1879.50Q732 1839 662.50 1769.50Q593 1700 552.50 1607Q512 1514 512 1408Q512 1339 530 1274.50Q548 1210 581 1153Q614 1096 661.50 1048.50Q709 1001 768 967L768 725Q649 684 554 613Q459 542 393 447.50Q327 353 291.50 239Q256 125 256 0L128 0Q128 131 163.50 253Q199 375 265 480Q331 585 426 669Q521 753 640 809L640 901Q580 946 532.50 1002.50Q485 1059 452 1124Q419 1189 401.50 1261Q384 1333 384 1408Q384 1496 407 1578Q430 1660 471.50 1731Q513 1802 571.50 1860.50Q630 1919 701 1960.50Q772 2002 854 2025Q936 2048 1024 2048Q1112 2048 1194 2025Q1276 2002 1347 1960.50Q1418 1919 1476.50 1860.50Q1535 1802 1576.50 1731Q1618 1660 1641 1578Q1664 1496 1664 1408Q1664 1333 1646.50 1261Q1629 1189 1596 1124Q1563 1059 1515.50 1002.50Q1468 946 1408 901L1408 809Z"/></svg>